<?xml version="1.0" encoding="UTF-8"?>
<!DOCTYPE svg PUBLIC "-//W3C//DTD SVG 1.1//EN" "http://www.w3.org/Graphics/SVG/1.1/DTD/svg11.dtd">
<!-- Creator: CorelDRAW 2019 (64-Bit Evaluation Version) -->
<svg xmlns="http://www.w3.org/2000/svg" xml:space="preserve" width="150mm" height="80mm" version="1.1" style="shape-rendering:geometricPrecision; text-rendering:geometricPrecision; image-rendering:optimizeQuality; fill-rule:evenodd; clip-rule:evenodd"
viewBox="0 0 15000 8000"
 xmlns:xlink="http://www.w3.org/1999/xlink"
 xmlns:xodm="http://www.corel.com/coreldraw/odm/2003">
 <defs>
  <style type="text/css">
   <![CDATA[
    .fil0 {fill:#006633;fill-opacity:0.090196}
   ]]>
  </style>
 </defs>
 <g id="Layer_x0020_1">
  <metadata id="CorelCorpID_0Corel-Layer"/>
  <path class="fil0" d="M4881.08 366.33l-32.53 34.5c-23.65,-27.14 -25.51,-50.59 -27.08,-54.77 -19.91,5.43 -23.95,4.56 -43.72,17.1l-23.27 28.22c-9.68,-5.33 -50.42,-64.65 -132.94,-25.05l39.29 13.23c3.71,1.78 7.52,3.94 11.08,5.79 3.78,1.96 8.23,5.07 11.39,6.81 3.26,1.81 8.11,4.38 11.6,7.34 -168.98,-6.48 -144.08,-32.84 -201.58,7.03 52.51,31.68 74.86,11.51 122.05,22.39 63.99,14.75 -14.98,37.41 61.14,8.94 74.26,-27.78 -45.5,-29.53 64.57,-31.22 12.78,32.78 -28.11,-15.61 -4.35,37.79 60.37,2.04 118.01,5.72 178.74,5.86 154.79,0.33 221.94,-75.34 392.59,-80.36 75.99,-2.23 -3.76,-4.2 76.18,16.49l222.66 27.96c34.55,70.67 37.31,104.69 -27.98,132.37 35.84,31.83 47.62,2.79 81.89,27.34 1.83,1.3 14.85,16.7 20.13,21.61 -74.45,-7.75 -90.03,-19.15 -119.66,38.62 65.08,43.25 49.97,-8.72 112.23,-7.1l-107.8 69.65c-45.69,31.87 -42.15,55.32 -37.33,113.58 15.46,187.2 90.45,165.34 118.42,174.59 56.64,18.72 13.89,22.01 94.75,29.71 18.67,-22.68 37.77,-48.14 57.02,-75.7 36.04,-51.6 42.21,-32.75 71.59,-73.7 51.33,-71.55 -38.78,-43.81 160.68,-94.48 102.78,-26.11 91.27,-68.89 195.04,-86.48 89.2,-15.12 151.98,-40.17 223.1,-62.04l-14.74 -15.47c-30.27,-34.89 -28.3,-19.22 -33.85,-50.2 61.51,15.65 4.72,20.86 82.59,29.84 19.46,-26.17 6.39,-50.25 24.4,-87.91 29.9,-62.51 20.72,13.93 76.57,-80.33l31.11 -46.61c9.2,-27.24 -30.23,17.04 5.64,-17.51l139.94 -38.75c-62.6,-25.21 -61.44,12.24 -211.96,-17.27 -78.21,-15.32 -153.86,-17.44 -239.89,-13.75 -179.6,7.7 -324.09,23.85 -496.38,27.33 -72.67,1.47 -154.98,-16.22 -240.57,-17.81 -85.54,-1.6 -179.59,3.55 -265.02,10.4 -63.41,5.09 -181.41,12.4 -231.1,20.85 -47.26,8.04 -170.74,-21.62 -194.64,41.17zm4375.6 4685.34c-14.52,-34.41 -55.36,-115.86 -52.78,-143.71l67.35 -108.14c-19.1,-12.62 -41.72,-22.83 -60.2,-45.98 -33.22,-41.6 12.34,-13.32 -36.78,-52.55l-43.19 47.57c-67.8,114.27 -45.54,47.47 -89.32,110.7 -8.91,12.87 -21.71,39.92 -23.92,43.01 -53.79,75.41 -35.4,-28.39 -91.68,106.4 -60.51,-6.63 -46.5,-34.59 -74.96,8.17 -40.8,61.31 18.25,148.35 25.55,175.51 18.27,67.94 -3.19,119.8 124.08,121.53 72.42,0.99 57.64,-10.91 86.12,44.64 43.06,-19.98 34.53,-28.08 64.12,-3.26 2.84,-37.63 3.28,-56.47 9.86,-94.71l95.75 -209.18zm2453.38 567.25c-18.22,181.82 1.94,123.42 -80.41,209.41 49.26,118.11 107.52,54.51 191.37,23.77 60.13,-22.05 73.1,-6.32 128.88,-15.15 12.8,-2.02 368.61,-203.19 444.71,-43.66 21.68,45.43 2.46,90.18 4.01,127.22 24.64,-7.94 54.46,-39.39 87.26,-57.63 0.74,1.85 0.86,3.32 1.01,5.89l11.78 81.58c6.1,88.51 -16.17,46.18 -17.25,137.48 74.23,66.2 105.52,38.07 135.93,41.61 65.92,7.66 -15.94,0.03 62.76,25.05 92.31,-73.23 129.71,-13.06 184.45,-75.92l131.14 -150.73c50.91,-53.59 91.44,-78.53 141.96,-126.11 35.14,-33.1 28.32,-26.19 59.99,-73.98l70.8 -81.95c12.57,-70.9 52.8,-167.28 95.22,-233.2 -10.47,-3.23 -50.4,14.05 -56.44,-111.62 -4.78,-99.38 1.19,3.12 -19.3,-64.81 -8.77,-29.08 -2.06,-54.88 -9.44,-84.19 -19.28,-76.57 -73.86,-36.02 -65.72,-144.11 23.31,-309.72 -31.98,-105.61 -49.67,-284.04 -3.81,-38.39 -5.26,-95.49 -21.24,-120.93 -112.23,207.47 -79.33,334.64 -173.61,384.17 -41.16,-16 -138.84,-123.07 -158.27,-158.77 24.52,-32.51 77.27,-112.85 61.97,-147.39 -37.9,-11.77 -75.53,6.01 -144.89,-27.43 -2.95,1.19 -6.16,4.44 -7.74,5.56 -94.06,66.55 -67.69,11.03 -116.34,58.74 -21.57,21.16 -52.48,87.47 -59.84,119.67 -66.65,-26.61 -32.39,-0.6 -84.06,-58.15 -36.46,6.47 -35.62,5.42 -64.69,24.43 -56.65,37.03 -29.73,32.94 -70.79,77.18 -60.47,65.15 -40.42,-22.96 -52.62,79.12 -31.57,-39.54 3.87,-20.23 -36.82,-35.43 -81.41,145.76 -64.53,153.33 -272.36,209.4l-144.98 70.69c-50.07,26.99 -54.69,93.57 -74.66,170.11l-22.59 51.85c-13.54,42.41 21.02,199.35 -9.51,192.27zm-2759.17 -5099.13l107.06 62.4c-82.35,-13.16 -128.71,-34.85 -216.69,-32.99l-251.9 59.65c-48.72,16.25 -72.82,47.27 -100.31,50.76 -48.47,6.15 -42.41,-40.47 -76.56,-47.28 -13.53,29.33 2.38,45.62 11.91,76.32 -41.29,-6.88 -63.95,-4.56 -91.2,13.96 -36.15,24.56 -14.94,37.72 -14.95,36.89 -0.01,-1.5 1.02,4.1 -0.01,8.44l-92.24 -9.25 49.31 37.44c-143.79,-20.5 -62.16,-20.39 -146.45,-85.7 83.15,3.62 148.37,37.88 203.09,-15.92 -31.65,-53.08 -132.69,-69.73 -202.43,-80.04 -230,-34 -172.09,-87.15 -465.35,-21.63l-138.48 39.03c2.1,3.94 9.69,11.55 10.9,13.84 15.21,28.77 10.74,19.13 -26.21,56.45 -150.06,151.57 -68.41,68.68 -253.8,161.45 7.38,24.41 9.28,28.57 15.3,47.51l8.54 27.67c31.56,91.29 112.89,21.37 167.31,-2.91l90.7 159.18 45.89 -10.63c51.65,-18.04 -51.24,23.06 19.35,-8.36 91.01,-40.49 31.66,-38.69 62.36,-106.72l49.63 -56.11c-17.51,-28.07 -6.67,-10.01 -26.58,-31.22 -2.11,-2.25 -5.35,-5.3 -7.31,-7.33 -1.99,-2.06 -5.81,-5.73 -7.45,-7.39 -1.66,-1.68 -6.34,-2.71 -7.56,-7.46 -1.21,-4.79 -5.35,-4.75 -7.65,-7.47 77.59,-39.35 81.25,-42.21 118.36,-112.68l86.19 8.42c-25.83,109.12 -123.52,28.66 -73.77,158.51l86.62 0.18 7.09 37.98c19.04,46.93 24.83,-9.4 31.43,72.47 -54.09,-8.22 -65.29,-50.7 -93.84,-4.54 -17.91,28.98 -2.64,71.7 8.27,92.57 -80.36,15.05 -16.38,17.8 -103.04,18.32 -69.81,0.42 -54.52,21.24 -107.67,25.98 -113.3,10.09 15.04,-28.11 -89.28,-10.76 -60.43,10.06 -30.9,18.75 -94.21,-17.99 4.82,-58.38 37.11,-40.62 16.7,-92.08 -11.05,-27.88 -3.79,-9.04 -17.62,-23.13 -42.25,20.45 -27.69,1.7 -58.62,37.28 16.23,151.84 95.66,100.49 -90.95,146.15 -6.61,17.95 0.87,8.07 1.1,14.18 1.65,45.23 -71.42,76.38 -108.34,105.69 -12.48,9.91 -24.42,51.06 -31.77,33.45l-213.22 48.91c39.35,82.36 152.31,-4.15 120.71,250.11 -63.41,12.91 -105.09,4.46 -159.64,-2.02 -84.1,-9.99 -72.63,-1.82 -133.5,14.54 -7.12,66.3 19.48,74.74 -6.38,166.82 -26.47,94.22 4.92,49.04 6.05,151.49 89.84,-1.02 80.23,-26.6 107.31,52.77l163.68 -45.98c105.71,-64.8 49.96,-166.36 148.12,-227.32 104.78,-65.08 9.16,-51.13 67.12,-96.19 56.38,-13.66 57.59,24.68 106.81,1.62 66.5,-31.15 37.09,-56.45 110.09,-50.25 42.77,37.2 20.08,48.18 60.48,83.97 66.27,58.71 191.74,87.36 202.79,193.77 -41.18,41.26 -85.62,14.87 -132.51,42.64 21.92,32.05 71.64,51.89 95.25,62.81 19.81,-35.43 0.14,-19.91 22.42,-54.07 83.36,-127.84 44.09,-20.8 37.88,-136.32 62.95,-6.72 4.78,6.33 69.37,15.86 -25.25,-48.45 -27.47,-41.24 -70.65,-68.77l-84.67 -48.89c-23.93,-15.65 -84.82,-79.32 -92.26,-109.3 -15.53,-62.46 5.96,-42.45 10.72,-49.38 20.87,7.52 12.09,6.51 26.59,14.36 91.56,49.6 84.32,87.65 237.8,164.26 -2.23,106.43 0.7,87.65 61.86,154.15 53.27,57.93 -0.05,71.84 75.73,118.2 53.45,-31.37 -33.43,48.3 12.88,-14.18 24.45,-32.99 20.61,-37.33 75.23,-56.7 -41.62,-45.32 -51.86,-39.93 -91.6,-112.62l37.74 -10.96c30.69,-18.44 -5.23,-1.99 22.74,-19.54 76.27,-47.84 82.94,78.33 84.46,81.78l9.05 16.9c68.04,158.61 190.72,141.88 204.62,107.39 2.14,-5.31 7.57,-4.37 11.74,-5.53 76.15,79.16 71.8,2.33 167.93,7.62 9.41,96.84 0.13,219.4 -42.96,285.85 -92.27,17.26 -63.18,-29.7 -161.66,0.13 -82.72,25.05 -191.73,-13.19 -271.56,-53.42 -204.91,-103.26 -89.71,145.02 -190.58,99.2 -141.24,-64.16 -116.99,-80.72 -164.24,-106.09 -37.84,-20.32 -71.26,-7.43 -184.66,-68.35 10.23,-25.56 52.29,-63.01 25.29,-162.03 -75.79,-26.81 -65.14,-10.33 -157.81,-3.58 -49.89,3.63 -137.34,8.71 -191.45,17.7 -116.37,19.32 -139.46,122.2 -281.1,54.28l-27.82 -16.12c-62.8,200.99 -119.52,62.44 -172.13,308.46 -20.18,94.39 -75.09,83.06 -122.6,121.97 -47.13,38.61 -141.63,235.16 -167.78,301.88 -23.29,59.41 0.31,109.85 5.02,167.34 6.21,75.69 4.15,125.36 -21.01,205.59 -23.39,74.6 -5.91,107.5 -2.7,197.79 34.37,25.87 25.07,12.3 53.99,51.53 124.63,169.04 54.53,152.83 175.04,254.7 48.21,40.76 92.91,134.83 168.02,124.32 52.26,-7.31 78.53,-52.13 161.3,-38.04 95.99,16.34 63.39,18.6 148.74,-21.27 232.74,-108.71 197.47,-34.43 253.36,58.21 55.68,9.54 85.31,-30.86 139.53,10.79 89.45,68.72 -62.6,239.58 40.8,388.33 78.71,113.24 67.39,90.5 111.36,221.87 16.44,49.1 50.31,240.8 39.35,281.7 -11.57,43.17 -37.64,50.27 -55.92,115.2 -49.55,175.96 -29.05,240.15 45.52,407.09 41.48,92.84 26.11,176.37 44.95,288.49 11.85,70.53 25.02,68.54 53.67,122.06 22.57,42.17 25.74,86.56 39.47,132.69 58.26,65.75 -63.57,243.16 157.19,182.31 113.43,-31.27 197.71,43.39 360.34,-175.17l115.78 -179.41c37.39,-111.17 -17.96,-106.08 71.87,-156.3 48.19,-26.94 16.98,4.81 48.05,-33.41 59.65,-124.5 -36.42,-205.5 28.09,-277.96 175.77,-197.42 244.99,-111.65 242.78,-324.4 -0.49,-47.46 12.91,-142.19 6.67,-170.93 -13.8,-63.66 -39.16,-49.1 -35.81,-150.45 4.39,-132.5 -58.56,-32.66 34.57,-257.72 26.03,-62.9 41.92,-51.81 78.61,-109.81 28.43,-44.93 49.01,-74.51 75.66,-112.61 43.4,-62.07 172.42,-120.43 232.77,-328.8 40.95,-141.39 70.97,-129.7 67.22,-298.23l-171.05 46.78c-3.04,0.95 -6.44,2.34 -9.44,3.34l-19.06 6.91c-3.25,1.06 -6.68,2.37 -10.03,3.38 -31.08,9.45 -46.8,15.15 -80.08,15.19 -26.17,-27.76 -39.58,-31.46 -46.67,-67.1 -8.25,-41.46 -5.1,-85 -102.39,-159.81 -67.7,-52.05 -58,-19.28 -87.59,-112.08 -26.68,-83.65 -42.2,-73.35 -75.83,-125.92 -34.28,-53.6 -13.91,-102.4 -40.38,-160.78 -29.3,-64.6 -39.18,-29.72 -74.51,-125.37 -26.12,-70.72 -113.42,-209.9 -133.12,-279.74 42.27,76.5 22.72,73.79 107.36,61.07 46.64,140.25 161.3,238.1 176.57,292.76 17.68,63.24 -5.19,79.33 39.76,122.71 80.08,77.27 49.92,44.82 127.28,180.92 25.17,44.29 17.41,74.65 28.57,128.38 8.61,41.48 25.93,94.08 36.47,128.05 98.97,-4.87 239.11,-102.38 311.19,-139.51 78.88,-40.64 31.33,-32.25 74.08,-73.45 34.63,-33.37 58.32,-19.41 96.97,-51.95l161.13 -288.87c-7.3,-53.15 -84.67,-82.81 -103.64,-92.02 -66.21,-32.13 -54.21,-48.15 -71.13,-131.16 -46.32,50.09 -38.94,99.85 -102.2,121.41 -99.65,33.97 -76.82,-29.17 -101.2,-105.42 -40.25,12.6 -29.07,65.79 -23.66,24.51 -38.3,-29.31 9.6,-1.14 -81.27,-107.36 -39.43,-46.09 -60.62,-72.9 -29.23,-132.06 97.24,9.96 66.34,74.86 150.06,131.55 143.73,97.3 102.84,43.36 207.8,33.78 29.94,93.13 18.36,63.09 118.08,82.92l49.44 19.52 232.21 -18.59c44.66,58.51 85.62,130.64 162.68,132.92 -19,30.05 -22.24,18.87 -32.43,58 71.5,48.24 115.81,120.87 130.5,-24.63 21.29,133.51 73.41,316.51 129.88,432.17l84.49 199.1c36.31,81.65 19.71,112.05 85.52,174.45 36.96,-50.65 76.11,-117.34 81.84,-182.26 8.4,-95.21 -16.64,-190.31 -7.14,-255.05 60.42,-36.9 97.13,-104.04 131.1,-158.03 41.51,-65.94 97.62,-120.21 103.45,-179.1 2.86,-28.92 63.52,-19.42 88.95,-28.99 32.68,-12.29 36.85,-31.7 59.51,-51.12 36.95,52.16 42.07,95.19 88.22,141.25 52.58,52.47 87.63,128.49 97.45,196.37l11.75 56.31c44,41.54 46.38,-34.49 110.77,-44.48 70.62,79.43 79.71,213.43 103.04,303.25 9.89,38.07 8.5,84.6 12.29,133.19l69.3 11.82c-3.68,1.58 -7.53,3.33 -11.44,4.94l-46.78 16.57c17.47,47.77 -1.07,-4.75 43.16,43 76.34,82.42 51,203.89 123.61,293.69 32.17,39.77 55.69,60.76 95.39,66.51 24.98,-47.39 17.22,-32.94 -2.43,-77.17 -33.39,-75.14 -7.38,-140.2 -76.56,-206.81 -11.02,-10.62 -16.59,-16.07 -28.21,-25.97 -130.06,-110.86 21.09,-119.85 -136.24,-141.34 -1.84,-57.36 2.65,-178.73 29.06,-234.02l43.39 36.41c3.45,2.19 14.45,7.74 17.99,9.86 40.29,24.13 130.76,158.79 139.84,132.3 0.76,-2.24 4.94,0.78 7.37,1.4 1.32,3.68 2.41,8.52 3.12,11.3l16.69 74.69c50.83,-22.94 48.39,-59.45 79.69,-90.5l53.54 -40.82c35.78,-36.38 18.98,-5.08 32.05,-53.52 38.59,-291.48 -309.99,-305.13 -186.48,-476.9 61.46,-85.46 89.53,-27.91 133.11,2.86 -24.85,64.87 -11.46,14 -29.27,48.7 -14.75,28.73 -15.37,-15.28 -10.16,33.73 4.29,40.31 33.27,41.53 78.18,48.25 49.85,-119.93 0.29,-71.07 -22.88,-152.41 10.53,-10.61 6.82,-7.57 24.27,-19.64l126.07 -65.66c62.13,-23.1 91.7,-46.21 124.33,-101.32 32.28,-54.51 20.92,-103.55 34.36,-163.46 19.77,-88.11 22.92,-98.94 -40.79,-152.07 31.26,-25.66 19.51,-15.12 18.13,-29.16l-14.4 -29.05c-0.82,-1.23 -2.88,-4.57 -3.79,-5.78 -2.69,-3.58 -1.49,-5.37 -14.91,-16.99l-69 -51.2c-77.24,-77.75 -133.85,-105.2 -36.48,-183.03 -30.7,-19.46 -91.74,-21.84 -113.81,-13.59 -116.65,43.63 81.63,-12.06 -28.38,13.64 -43.21,-27.01 -42.11,-32.51 -96.8,-48.92 12.56,-29.02 55.18,-104.6 90.57,-118.49 24.33,23.07 22.71,35.43 35.27,72.09l5.99 18.94c40.63,-20.04 60.9,-64.37 120.96,-40.78 54.69,21.49 15.24,11.56 37.72,45.06 34.53,51.43 72.84,17.87 112.71,72.63 1.63,2.23 3.48,5.79 5.07,8.09l10.82 16.07c23.1,33.01 35.7,59.27 56.8,91.92 34.03,-14.85 56.02,-29.37 93.46,-45 -23.12,-107.97 -130.31,-134.41 -205.65,-192.26 7.81,-67.88 27,-20.81 15.49,-94.01 -10.58,-67.22 -3.9,-18.21 5.61,-88.02 183.49,30.14 91.42,-55.18 92.94,-181.76 0.57,-47.32 13.5,-13.5 19.69,-66.7 3.67,-31.52 -0.34,-38.71 -14.5,-62.57 -27.48,-46.31 -54.26,-34.36 -80.19,-101.36 60.3,12.23 92.82,54.58 128.5,92.71 79.95,85.45 18.39,57.62 54.53,121.07l83.74 -31.68c-49.4,-22.86 -46.21,-21.92 -76.47,-56.65 4.46,-23.42 -49.33,-36.35 44.84,-31.98 -69.55,-25.96 -241.75,-181.43 -266.5,-185.99 -80.26,-14.78 13.55,43.27 -72.12,3.54 -28.71,-13.32 -32.28,-35.29 -69.02,-35.59 -62.16,-0.52 17.47,46 -157.03,-18.34l23.57 -91.26c239.36,-67.91 220.26,11.99 386.79,-31.93 -67.56,-36.72 -75.01,-12.25 -72.6,-111.62 70.64,-4.84 103.14,17.31 154.78,36.16 32.42,-48.31 8.6,-38.95 -11.63,-92.61 19.02,9.58 7.58,5.47 21.23,15.43l64.77 42.35 23.24 163.28c24.41,110.85 226.7,150.09 306.92,215.34 28.55,23.23 28.12,60.4 33.61,44.32 0.65,-1.91 2.22,5.66 4.04,8.05 12.63,-44.27 9.8,-32.92 3,-68.67l-29.89 -90c-10.86,-33.85 0.77,-2.76 -4.07,-25.14 -21.2,-97.94 -142.72,-121.09 -184.56,-200.92 1.89,-0.9 4.84,-2.26 5.71,-2.61 0.91,-0.37 4.8,-2.25 6,-2.7 1.3,-0.49 5.05,-2.18 6.63,-2.71l197.18 -18.36c0.6,-2.12 -0.05,-5.59 0.06,-6.59 0.12,-1.04 0.2,-5.59 0.41,-6.9 0.22,-1.39 0.59,-5.71 0.96,-7.3l41.1 -57.03c5.33,-4.08 13.9,-1.17 16.88,-11.06 1.28,-4.27 5.84,-3.43 8.64,-5.33l-40.3 -40.74c-43.8,-44.33 -91.18,-66.36 -161.74,-70 -13.37,-42.56 -3.38,50.94 7.38,-12.99 9.1,-54.13 -65.09,-42.68 -109.89,-68.96 -45.11,-26.45 -4.91,-24.48 -84.1,-38.17 -210.47,-36.37 -286.46,-125.98 -603.28,-59.14 -104.38,22.01 -200.74,29.47 -305.74,5.71 -274.06,-62.03 -330.54,21.85 -293.04,-107.42 -83.25,0.57 -156.88,-17.63 -232.65,-19.67 -76.25,-2.06 -157.47,-0.13 -235.52,-1.44 -19.93,42.83 13.17,20.73 -5.67,54.82 -84.08,5.04 -60.63,27.55 -147.39,0.46l0 38.79 -148.01 -69.54c-74.61,-27.1 -115.23,-9.25 -173.05,-9.46 -50.92,-0.19 -129.13,-18.39 -187.83,-22.08 -97,-6.1 -104.56,19.15 -175.84,23.64 -147.61,9.31 -158.46,-20.53 -293.15,35.1 -49.21,20.32 -38.38,6.66 -76.87,17.28 -52.55,14.51 -64.27,45.69 -123.51,39.72 -46.15,-4.65 -26.58,-6.35 -43.18,-14.24 -48.8,-23.19 -55.41,-22.04 -104.59,-0.77 -3.91,1.69 -8.6,4.31 -11.84,5.81 -3.4,1.56 -9.61,10.02 -12.09,6.63 -2.54,-3.46 -8.72,3.88 -12.22,7.01 50.04,13.68 41.28,0.11 64.98,46.55 -83.4,-49.13 -111.56,-69.91 -208.49,-97.41 -8.93,16.14 -4.1,9.44 -12.42,36.55 -7.65,24.91 0.91,7.14 -6.98,25.24zm-5228.09 -21.32l-3.92 50.05c70.04,-2.34 119.23,-32.74 171.06,-29l-49.34 60.33 111.17 6.89c-61.1,3.98 -115.83,0.08 -159.76,21.32 14.1,29.51 -1.33,6.21 23.91,26.77l33.92 20.56c42.65,15.88 56.79,2.78 106.26,13.07l-25.93 50.85c-14.23,-62.15 -106.06,-28.72 -165.93,-37.1 69.23,-22.45 28.41,11.47 52.24,-33.34 -82.61,-20.44 -177.83,-82.84 -254.54,-42.33l-13.4 -34.7c-69.06,22.36 -186.02,19.7 -288.26,33.09l-63.33 -4.67c-64.02,-24.13 -289.29,-99.95 -341.84,-98.87 -105.14,2.16 -202.36,23.59 -300.11,51.22 -55.07,15.57 -100.84,9.16 -145.4,24.11 -47.66,30.56 -0.9,-11.36 -35.56,49.49 -24.42,42.85 0.85,13.51 -38.56,52.57 -57.62,-5.72 -10.61,-31.21 -124.56,-15.91 -9.89,1.33 -58.42,11.45 -66.32,15.06l-49.31 50.18c39.62,19.69 5.93,3.72 47.21,13.92 4.45,1.1 18.55,3.81 22.71,4.83 3.27,0.8 7.37,1.82 10.21,2.54l18.7 5.51c-66.68,44.37 -137.82,21.12 -209.39,44.87 -63.05,20.92 -149.11,40.42 -212.06,55.78l52.26 24.26c-38.96,15.66 -41.6,13.21 -55.12,49.28 41.59,29.15 2.46,-2.08 52.98,12.13 -26.32,10.34 -44.89,19.61 -73.18,30.37 49.2,23.91 16.94,-14.19 107.07,32.71 -116.21,51 -265.85,82.39 -389.65,113.06 11.03,5.32 5.99,5.99 31.16,11.68 113.84,25.75 248.54,-99.88 361.21,-64.49 7.67,2.41 21.11,20.54 79.83,-1.69 111.12,-42.06 70.55,-42.27 95.19,-87.03l79.84 -21.01c17.66,51.74 0.53,-52.26 -0.11,15.25 -0.14,15.27 -7.67,-7.16 0.66,16.35 50.42,-7.29 76.1,-19.29 123.12,-25.21 109,-13.73 28.34,-5.32 104.67,-38.91 47.76,16.6 3.37,8.1 42.29,30.35 88.35,50.52 174.03,16.94 102,159.64l-12.71 39.66c-0.5,2.24 -0.99,6.36 -1.49,8.62 -0.52,2.3 -1.36,6.44 -1.9,8.71 -8.51,36.13 -45.2,29.5 -2.07,42.52 18.96,5.72 32.16,-12.47 47.23,-25.16 9.29,42.05 -12.58,39.55 0.84,65.8l182.91 -6.89c-16.35,68.41 -64.79,110.27 -84.14,163.91l-145.21 224.68c-15.24,25.65 -22.97,68.22 -26.47,102.01l-9.16 238.09c73.69,54.26 79.23,58.77 75.03,161.03 -5.03,122.72 18.48,133.21 28.67,214.52 -98.52,60.47 0.32,-52.13 -53.73,5.52 135.8,183.51 23.2,166.24 114.07,274.69l32.85 22.27c1.23,-3.63 1.76,-13.31 1.73,-11.37l-3.16 -42.08c-6.09,-25.02 -8.78,8.09 -13.94,-49.73 -4.66,-52.18 -0.96,-79.58 -13.26,-138.1 -12.71,-60.46 -49.6,-197.33 -10.53,-255.37 72.19,74.25 1.26,112.34 35.2,177.79 72.83,140.45 30.48,78.31 60.47,172.13l22.59 37.7c119.91,197.14 12.15,267.99 78.42,350.81l12.44 14.63c2.57,3 9.57,12.02 12.29,14.88 33.15,34.87 53.44,32.96 93.24,67.28 194.7,167.89 240.4,68.61 279.66,84.19 71.57,68.8 62.81,105.32 182.48,151.17 77.27,29.61 98.52,28.86 130.3,122.13l14.89 65.67c8.21,34.38 49.32,37.06 69.71,64.48 25.72,34.59 71.86,77.9 111.79,89.07l13.18 -54.95c19.83,-33.67 20.41,-28.15 49.28,-32.02 72.5,81.1 83.33,286.31 18.56,356.27 -39.44,42.59 -9.94,18.9 -39.98,66.86 -31.55,50.37 -76.38,71.4 -74.57,175.49 2.1,120.95 15.8,14.19 41.81,79.12 -30.1,44.33 -59.92,64.35 -57.07,115.96 5.18,93.49 30.86,74.2 64.5,123.12l182.64 379.98c46.35,156.8 230.46,148.14 284.88,276.72 44.6,105.37 27.85,217.66 43.95,333.2 11.5,82.47 10.29,267.46 32.31,343.9 81.54,283.03 -22.87,191.32 52.93,416.3 31.96,94.85 31.69,187.99 57.54,220.77l13.4 -80.46c61.44,82.92 16.87,124.49 15.25,154.7 -2.16,40.37 1.47,15.74 33.99,29.08 -20.97,18.31 -42.66,17.64 -43.67,43.26 -1.44,36.49 24.14,18.92 50.56,41.95 -20.22,39.25 -23.71,30.87 4.73,69.91 1.61,2.2 4.17,5.41 5.82,7.7 1.69,2.33 4.07,5.59 5.77,7.99l40.9 56.21c1.79,2.01 4.57,5.12 6.35,6.94l76.37 79.15c18.01,46.34 95.25,57.37 169.49,91.2 80.1,36.5 91.35,35.26 177.2,-10.92 -42.81,-29.35 -100.11,-40.35 -146.87,-76.92l-72.5 -82.77c10.64,-38.3 55.84,-118.64 58.74,-156.88 -39.38,-31.1 -34.86,-5.92 -65.93,-28.34 -59.01,-42.59 -3.06,-34.83 21.5,-147.87 15,-69.03 16.04,-19.82 32.74,-69.99 -42.61,-39.67 -66.14,24.75 -72.36,-73.17l85.98 5.99c5.43,-43.47 -3.58,-78.41 -15.87,-111.78 129.15,-4.81 155.88,1.48 186.4,-115.82l-35.87 -64.86c-27.55,-48.13 -40.36,-35.17 -59.36,-65.21 38.66,28.69 105.6,35.16 170.41,21.47 43.64,-69.12 58.27,-137.74 77.23,-216.91 36.85,14.61 -47.05,3.95 19.88,18.52l22.55 -6.83c8.08,-128.52 54.3,-75.68 38.24,-205.05 -12.45,-100.26 45.29,-124.39 107.03,-166.66 5.94,-4.07 39.24,-28.15 40.36,-28.71 102.43,-51.37 118.64,23.08 172.25,-201.82 15,-62.97 26.85,-155.97 23.55,-222.91 -8.51,-172.87 -5.6,-92.49 45.24,-204.2 56.15,-123.38 164.02,-170.92 95.8,-371.94 -68.56,-43.91 -59.78,0.35 -133.3,-79.75 -91.25,-99.42 -195.06,-37.06 -287.24,-128.29 -3.32,-3.29 -19.66,-18.33 -21.34,-19.57 -55.15,-40.69 -114.1,-68.92 -142.55,1.31 23.4,-83.48 -13.37,-59.46 -17.5,-64.95 -55.69,10 -21.14,-1.98 -51.11,16.03 -17.11,10.29 -10.62,15.53 -39.2,29.21 -8.64,-85.04 79.83,-70.66 33.07,-178.17 -23.69,-54.5 -28.44,-107.21 -67.34,-148.14 -100.2,-105.43 -194.9,-20.54 -274.88,-140.14 -36.08,-53.97 -12.07,-39.87 -70.15,-72 -52.36,-28.97 2.54,-11.97 -50.21,-63.14l-49.84 -46.62c-0.67,-1.28 -2.1,-5.29 -2.61,-6.46l-3.9 -12.76c-101.99,-7.86 -55.11,20.32 -107.56,21.94 -34.03,1.05 -72.46,-21.27 -120.23,-20.67 -26.67,-46.4 -53.87,-44.16 -80.39,-89.35 -39.26,49.61 1.24,-3.82 -13.4,44.28l-70.63 15.76c10.96,-31.21 34.76,-42.35 17.03,-75.6 -55.53,25.29 -6,21.14 -66.99,51.83 -99.82,50.24 -84.92,-9.78 -136.44,103.38 -12.69,27.85 -31.45,50.87 -51.98,71.96 -75.25,-81.63 -74.98,-79.96 -175.22,-29.76 -71.4,-89.92 -78.96,-110.7 -34.04,-261.49 44.45,-149.2 -68.53,-118.96 -202.5,-119.63 6.38,-25.07 18.8,-73.43 27.46,-96.13l68.52 -150.3c22.37,-28.17 5.69,25.49 17.66,-21.78 21.88,-86.41 6.78,-24.36 -9.24,-48.54l-128.58 5.66c-14.08,34.15 -60.15,120.68 -69.42,149 -69.76,-7.91 -259.03,78.34 -214.8,-241.99 10.72,-77.6 11.22,-75.69 44.73,-129.71 42.86,-69.08 15.36,-113.85 76.35,-165.17 17.19,-14.46 7.43,-6.57 23.96,-16.8 5.22,-3.24 15.84,-7.76 26.02,-13.93 50.75,-30.71 37.39,-49.47 120.83,-43.73 76,5.23 48.56,26.51 147.71,27.36l11.53 -60.95c52.89,0.68 93.44,-3.98 131.08,15.65l55.67 24.77c105.12,35.16 -6.23,137.68 83.1,261.45 151.83,-82.82 -69.76,-274.6 145.65,-413.26l216.81 -171.56c19.89,-51.08 31.74,-84.14 71.01,-130.58 73.4,-86.79 122.4,-141.62 240.74,-147.81l-2.25 -33.73c7.31,-93.79 174.73,-141.03 256.75,-156.09 -43.12,47.34 -63.4,9.5 -51.21,85.96 38.07,0.52 97.93,-41.96 143.8,-57.23l60.27 -30.03c-41.12,-26.18 -75.9,-24.97 -107.29,-73.95l72.53 52.04c-9.51,-47.82 6.07,-6.11 -15.44,-30.87 -36.12,-41.57 -79.87,7.31 -39.5,-78.35l-76.7 -8.58c38.69,-9.98 44.47,-2.43 70.98,-34.48 -9.76,-9.59 -13.34,-8.46 -29.31,-16.52l-52.83 -28.88c154.54,-20.1 109.66,64.18 176.09,32l-64.41 -36.04c53.12,-1.97 111.27,8.62 160.43,-4.49 62.45,-16.66 38.67,-38.91 116.18,-30.11 -27.18,3.43 -44.04,40.32 -69.45,61.47 -99.16,82.54 -36.04,97.86 74.43,92.13l15.85 35.85 55.45 -25.9c0.68,2.1 3.14,12.05 4.46,14.85 9.41,20.08 -4.21,10.23 20.49,28.08 50.74,-55.72 22.25,-47.18 -14.24,-90.89 -30.82,-36.93 -3.41,-27.14 -45.25,-51.37 -30.54,-17.69 -4.28,-4.23 -39.84,-17.52 20.63,-40.59 67.59,-72.68 69.1,-123.45 -0.82,-3.25 -3.57,-11.1 -4.25,-9.12 -0.68,1.97 -3.33,-7.21 -4.29,-9.1 -0.96,-1.87 -3.19,-6.7 -4.39,-8.98l-19.32 -32.85c-33.04,-41.12 -49.34,-29.1 -95.36,-73.95 11.33,-56.59 17.39,-53.87 1.83,-133.99 19.92,-25.75 54.98,-26.16 44.51,-77.75 -15.45,-76.19 -47.76,12.07 -38.88,-72.29 52.1,-11.82 52.32,15.09 74.7,43.13 50.56,-14.06 94.34,-34.03 127.45,-67.28 -35.12,-27.99 -84.02,-50.6 -113.77,-73.59 4.82,-37.08 22.98,-12.45 34.81,-61.16 -34.24,-29.79 -112.15,-58.98 -138.78,-88.72 -58.19,-65 -6.99,-53.01 -176.56,-51.62 -41.24,0.34 -87.11,-11.53 -140.65,5.7 -56.44,18.17 -168.82,68.88 -109.34,124.36 49.43,46.12 -10.06,-39.3 36.65,28.87 -22.76,19.14 -53.13,56.66 -94.91,43.86l-30.58 -19.6c-1.88,-1.12 -5.47,-3.16 -7.27,-4.2 -44.3,-25.57 -21.87,12.58 -33.71,-23.82l16.19 -50.17c45.61,-95.98 68.28,-62.87 133.53,-82.23 36.79,-10.92 41.65,-16.74 61.8,-37.59 -205.87,-21.37 -134.9,41.67 -343.8,145.45 25.57,49.37 43,10.19 17.43,44.26 -19.77,26.34 -34.26,28.96 -78.74,31.07 48.8,-28.17 97.23,-93.82 -62.22,-35.9l-1.81 27.01c-45.27,48.76 -156.19,17.66 -194.41,-12.47 3.51,-2.76 12.04,-6.31 14.47,-6.78 29.39,-5.76 88.69,-0.23 129.4,-20.06l61.82 -22.28 -34.57 -39.09c-1.47,-1.88 -4.47,-5.84 -6.52,-8.89l118.86 -99.48c-34.51,-4.04 -51.8,2.81 -79.76,10.33 -57.67,15.51 -47.95,6.76 -78.33,47.92 -41.67,-75.19 -11.75,4.05 -90.67,-36.18 -78.87,-40.2 21,-45.12 -112.49,-61.91 -119.1,-14.98 -160.54,43.45 -261.89,70.47zm9207.47 3591.04c16.2,29.08 24.54,-8.79 -42.41,81.8 -98.01,-106.62 28.83,-132.33 -120.6,-187.83 -21.53,17.06 -58.07,38.78 -75.52,54.26 28.1,37.36 23.34,14.48 42.17,35.67 30.65,34.5 16.57,25.54 20.59,51.67 11.66,75.71 16.12,20.58 26.84,98.44 80.54,-28.64 -3.68,-38.75 99.35,21.82 45.26,26.61 61.67,19.54 104.56,56.68 61.76,72.4 -7.66,145.99 -16.25,177.9 37.98,16.97 50.78,2.6 98.76,-4.92 22.73,63.1 25.29,76.55 114.88,70.6 31.47,-44.86 -3.47,-65.83 80.4,-88.33 116.8,69.17 47,177.05 227.78,185.76 44.81,-64.66 27.02,-5.29 23.05,-76.74 -81.91,7.34 -68.78,-1.48 -102.97,-75.33 -61.78,-133.5 -17.1,-38.68 2.4,-138.46 -100.97,-42.99 -51.36,-27.49 -103.19,-107.49 -42.51,-65.62 -187.09,-119.64 -256.75,-158.2 -52.67,-29.16 -21.44,-20.01 -76.68,-16.37l-71.68 -1.69c4.16,3.73 22.79,16.32 25.27,20.76zm-9998.03 3462.62c-18.5,16.09 -32.36,12.08 -53.22,22.09 -58.02,27.86 -26.02,-4.55 -42.87,41.14 67.26,40.08 113.89,-5.51 174.27,5.22 68.4,12.15 -20.49,17.24 151.32,38.06 -64.97,36.7 -86.93,-13.27 -121.57,61.5 330.97,20.32 719.85,0.86 1057.74,1.79 352.82,0.98 705.71,-0.88 1058.54,-0.04 832.24,1.97 6294.24,8.74 6336.34,-12.74 -35.18,-64.97 -79.53,-27.86 -133.82,-67 55.28,-36.55 113.59,-4.27 226.76,-55.04 83.15,-37.3 173.17,-74.3 270.83,-88.37 19.06,-2.75 78.67,-12.47 93.18,-18 56.2,-21.47 34.58,7.66 37.71,-51.09 -36.32,0.05 -83.64,2.38 -118.74,-0.3 -49.1,-3.76 -55.32,-18.32 -89.82,-30.45 -47,-16.53 -142.1,-16.93 -183.52,-35.74 -137.83,-6.42 -84.51,-89.75 -475.93,-75.51l-342.77 22.79c-79.93,14.59 -74.41,7.75 -147.17,-8.35 -212.59,-47.04 -207.3,22.32 -312.65,1.79 -95.06,-18.52 -30.46,-34.8 -142.48,-4.55 -67.29,18.17 -264.37,38.64 -335.38,25.97 -74.98,-13.38 -86.19,11.33 -153.05,12.68 -61.06,1.25 -116.69,-18.39 -177.19,8.07 -224.39,98.18 -49.69,-35 -285.28,75.72 -48.52,22.8 -97.18,35.85 -132.96,50.14 10.11,-98.77 42.78,-48.16 71.73,-111.14 -42,-33.85 -136.15,-40.36 -191.87,-32.33 -191.68,27.62 -58.46,-121.73 -377.29,-15.45 -71.98,23.99 -112.64,24.74 -191.33,38.42 -62.81,10.92 -125.37,57.87 -185.41,46.58 -36.85,-6.93 -32.6,-26.07 -97.21,-19.62 -60.4,6.03 -21.03,13.01 -74.75,25.89l-670.23 13.76c-83.65,-11.89 -92.55,26.35 -194.47,13.04 -97.49,-12.67 -96.78,13.48 -187.11,15.32 -87.83,1.78 -89.27,-18.86 -167.15,15.82 -60.12,26.78 -109.04,8.39 -147.13,41.19 -33.62,28.96 -13.94,60.66 -103.33,69.39 -111.56,10.9 -177.86,-30.22 -325.96,10.22 -70.08,19.14 -45.72,33 -129.31,57.83 -63.57,18.89 -86.36,9.27 -159.28,17.81 -34.1,-36.28 -11.1,-52.31 -79.81,-54.22 -196.28,-5.46 -92.36,100.34 -283.57,53.08 -81.67,-20.19 -144.42,-10.42 -223.14,-29.79 -86.84,-21.36 -147.87,25.26 -198.66,-39.15 34.2,-29.31 213.35,-27.01 272.6,-57.16 1.46,-119.53 -237.45,-167.47 -244.66,-170.63 -7.48,-84.49 12.76,24.97 39.35,-100.39 61.44,-19.84 64.47,-2.67 89.85,-47 -71.09,-46.02 -181.01,30.12 -213.93,94.39 -21.04,41.08 30.66,29.68 -16.77,65.07l-68.16 68.32c17,30.78 30.75,37.87 47.65,44.79 -38.82,7.5 -199.27,8.57 -242.41,4.65 -133.29,-12.1 -331.36,25.18 -427.38,-11.6 -89,-34.1 -49.36,-49.8 -185.29,-16.42 -13.67,76.94 25.4,51.39 -34.29,72.5 -25.82,9.14 -65.1,2.65 -88.15,-5.4 -127.42,-44.5 -12.8,-22.23 -172.49,-11.26 -79.75,5.48 -109.09,-36.84 -175.15,-18.79l-28.23 11.53c-12.15,3.11 -1.72,5.61 -27.71,3.17 -85.71,-8.07 18.53,-39.9 -159.18,-0.13 -70.02,15.67 -117.75,-11.62 -187.37,12.37 -200.63,69.13 -190.9,-10.23 -421.27,25.56z"/>
 </g>
</svg>
