<?xml version="1.0" encoding="UTF-8"?>
<!DOCTYPE svg PUBLIC "-//W3C//DTD SVG 1.1//EN" "http://www.w3.org/Graphics/SVG/1.1/DTD/svg11.dtd">
<!-- Creator: CorelDRAW 2019 (64-Bit Evaluation Version) -->
<svg xmlns="http://www.w3.org/2000/svg" xml:space="preserve" width="150mm" height="80mm" version="1.1" style="shape-rendering:geometricPrecision; text-rendering:geometricPrecision; image-rendering:optimizeQuality; fill-rule:evenodd; clip-rule:evenodd"
viewBox="0 0 15000 8000"
 xmlns:xlink="http://www.w3.org/1999/xlink"
 xmlns:xodm="http://www.corel.com/coreldraw/odm/2003">
 <defs>
  <style type="text/css">
   <![CDATA[
    .str0 {stroke:black;stroke-width:20;stroke-miterlimit:22.9256}
    .fil1 {fill:black}
    .fil0 {fill:black;fill-rule:nonzero}
   ]]>
  </style>
 </defs>
 <g id="Layer_x0020_1">
  <metadata id="CorelCorpID_0Corel-Layer"/>
  <g id="_1502268070624">
   <path class="fil0" d="M10195.56 1434.57c759.75,0 1447.6,307.97 1945.52,805.89 497.92,497.92 805.89,1185.77 805.89,1945.52 0,759.75 -307.97,1447.61 -805.89,1945.53 -497.92,497.91 -1185.77,805.89 -1945.52,805.89 -759.75,0 -1447.61,-307.97 -1945.53,-805.89 -497.91,-497.92 -805.89,-1185.78 -805.89,-1945.53 0,-759.75 307.98,-1447.6 805.89,-1945.52 497.92,-497.92 1185.78,-805.89 1945.53,-805.89zm1546.44 1204.97c-395.75,-395.75 -942.51,-640.53 -1546.44,-640.53 -603.93,0 -1150.7,244.78 -1546.45,640.53 -395.74,395.75 -640.53,942.51 -640.53,1546.44 0,603.93 244.79,1150.7 640.53,1546.45 395.75,395.75 942.52,640.53 1546.45,640.53 603.93,0 1150.69,-244.79 1546.44,-640.53 395.75,-395.75 640.53,-942.52 640.53,-1546.45 0,-603.93 -244.78,-1150.69 -640.53,-1546.44z"/>
   <path class="fil1 str0" d="M9752.87 3368.4c0,0 -135.96,-3.54 -177.87,158.09 -14.78,57.02 72.99,235.67 88.27,280.03 117.34,340.62 1129.29,1458.83 1214.04,1139.41 6.85,-25.87 7.64,-61.18 1.37,-107.09 0,0 17.54,-304.86 204.3,-120.77 240.19,236.76 679.99,643.36 612.48,748.6 -57.92,90.29 -25.21,151.38 -237.45,96.39 -125.39,-32.49 -4.61,349.65 -707.13,200.03 -770.72,-164.15 -2295.84,-2407.74 -1801.6,-2806.76 59.86,-48.33 171.76,-165.22 218.16,-256.63 43.25,-85.2 5.67,-74.91 34.13,-131.35 172.48,-342.12 365.53,-27.49 809.66,739.14 68.1,117.54 -204.9,215.36 -258.36,60.91z"/>
  </g>
  <path class="fil1" d="M5337.01 2960.59c0,778.28 -630.92,1409.21 -1409.21,1409.21 -778.29,0 -1409.22,-630.93 -1409.22,-1409.21 0,-778.29 630.93,-1409.22 1409.22,-1409.22 778.29,0 1409.21,630.93 1409.21,1409.22zm469.74 36.14c0,-1017.76 -825.06,-1842.82 -1842.82,-1842.82 -1017.76,0 -1842.82,825.06 -1842.82,1842.82 0,1017.75 1330.94,4227.65 1842.82,4227.65 511.88,0 1842.82,-3209.9 1842.82,-4227.65z"/>
 </g>
</svg>
