<?xml version="1.0" encoding="UTF-8"?>
<!DOCTYPE svg PUBLIC "-//W3C//DTD SVG 1.1//EN" "http://www.w3.org/Graphics/SVG/1.1/DTD/svg11.dtd">
<!-- Creator: CorelDRAW 2019 (64-Bit Evaluation Version) -->
<svg xmlns="http://www.w3.org/2000/svg" xml:space="preserve" width="50mm" height="50mm" version="1.1" style="shape-rendering:geometricPrecision; text-rendering:geometricPrecision; image-rendering:optimizeQuality; fill-rule:evenodd; clip-rule:evenodd"
viewBox="0 0 5000 5000"
 xmlns:xlink="http://www.w3.org/1999/xlink"
 xmlns:xodm="http://www.corel.com/coreldraw/odm/2003">
 <defs>
  <style type="text/css">
   <![CDATA[
    .fil0 {fill:#00A859}
    .fil2 {fill:#383536}
    .fil1 {fill:#E0BA36}
   ]]>
  </style>
 </defs>
 <g id="Layer_x0020_1">
  <metadata id="CorelCorpID_0Corel-Layer"/>
  <g id="_1502266326352">
   <path class="fil0" d="M2234.46 3175.98c41.21,0.05 65.68,-7.53 82.49,-34.94 6.79,-11.08 12.72,-25.35 16.66,-41.26 1.98,-7.99 3.45,-15.75 4.5,-24.15l3.35 -20.21c2.33,-5.98 0.82,-3.34 3.97,-7.27l20.5 107.8c18.25,5.17 45.04,12.21 62.81,6.7 3.79,-18.68 -2.71,-46.36 -1.84,-69.45 0.77,-20.11 5.99,-45.06 13.57,-60.92 0.55,0.43 1.3,0.52 1.49,1.46l4.93 6.87c9.7,18.7 48.88,145 86.43,134.37 36.48,-20.87 24.48,-102.83 37.72,-128.8 7.82,16.31 9.45,33.46 20.06,50.18 36.15,56.96 84.59,62.36 151.13,59.67l19.53 -20.02c7.51,-7.49 13.44,-11.9 22.29,-18.33 17.16,-12.48 36.22,-20.27 57.16,-26.97 214.35,-137.22 165.87,160.04 412.31,-207.97 2.7,-32.6 141.23,-347.07 121.08,-554.07 11.97,-74.71 -217.3,237.35 -171.77,146.32 190.43,-641.46 -115.37,-275.75 -121.38,-331.6 -5,-46.43 -28.41,-166.3 -69.33,-227.87 -18.44,-27.73 -52.69,-67.08 -77.96,-87.41 -23.51,-18.93 -105.56,-80.66 -131,-86.59 0,73.62 -40.72,57.39 -88.24,24.4 -28.95,-20.11 -44,-34.12 -69.34,-55.41 -5.37,-4.51 -6.04,-4.13 -11.4,-8.9 -4.78,-4.24 -6.77,-7.22 -11.77,-11.45l-96.58 -71.68c-13.94,-10.96 -81.23,-74.46 -91.16,-77.11 -19.5,13.06 -35.7,36.68 -50.09,51.45l-112.39 128.39c-18.98,24.87 -83.79,83.21 -108.14,100.76 -97.96,70.62 -61.98,-59.17 -169.18,89.02 -71.77,99.2 -37.36,30.89 -74.35,166.45 -2.32,8.52 -5.9,17.11 -8.12,26.68 -11.07,-2.96 -39.62,-49.63 -69.74,8.6 -24.16,46.71 -26.15,97.91 -26.11,151.04 0.02,25.37 27.03,144.12 11.71,159.44 -18.13,18.12 -51.46,-44.12 -62.29,1.55 -41.36,174.48 -2.09,185.33 82.59,311.73 -3.91,5.84 -4.42,5.62 -9.43,10.88 -11.13,11.7 -59.29,70.97 -79.38,22.79 -1.58,-3.78 -1.42,-4.64 -3.04,-8.56l-2.85 -5.85c-0.2,-0.4 -0.64,-1.27 -1.05,-1.85 0,41.21 9.97,74.58 18.57,109.06 26.03,104.33 127.49,415.87 271.26,360.53 29.64,-11.41 113.54,-84.93 191.82,-47.5z"/>
   <path class="fil1" d="M2493.87 1105.62c498.01,0 948.89,201.87 1275.26,528.24 326.37,326.37 528.23,777.25 528.23,1275.25 0,498.01 -201.86,948.88 -528.23,1275.26 -326.37,326.37 -777.25,528.23 -1275.26,528.23 -498,0 -948.88,-201.86 -1275.25,-528.23 -326.37,-326.38 -528.24,-777.25 -528.24,-1275.26 0,-498 201.87,-948.88 528.24,-1275.25 326.37,-326.37 777.25,-528.24 1275.25,-528.24zm681.02 3141.07l-121 -47.28c-12.67,-5.31 -25.84,-11.03 -37.99,-17.14 -55.44,-27.88 -88.05,-39.45 -142.7,-80.69 -64.65,-48.8 -119.01,-110.61 -150.88,-188.54 -50.7,-123.99 -58.43,-251.08 -58.43,-388.31 0,-73.08 4.39,-144.25 16.18,-207.18 6.14,-32.75 13.19,-60.94 23.32,-89.82 17.5,-49.95 28.57,-51.71 38.84,-75.36 -66.54,2.69 -114.98,-2.71 -151.13,-59.66 -10.61,-16.72 -12.24,-33.88 -20.06,-50.19 -13.24,25.97 -1.24,107.93 -37.72,128.81 -37.55,10.62 -76.73,-115.68 -86.44,-134.38l-4.92 -6.87c-0.19,-0.94 -0.94,-1.03 -1.49,-1.46 -7.58,15.87 -12.8,40.82 -13.56,60.92 -0.88,23.1 5.62,50.77 1.83,69.46 -17.77,5.51 -44.56,-1.54 -62.81,-6.7l-20.5 -107.81c-3.15,3.93 -1.64,1.3 -3.97,7.27l-3.35 20.21c-1.06,8.4 -2.52,16.16 -4.5,24.16 -3.94,15.9 -9.87,30.17 -16.66,41.25 -16.81,27.41 -41.28,34.99 -82.48,34.95 99.06,35.42 143.82,217.05 150.72,303.24 3.05,38 0.33,568.48 -0.03,571.12 -4.04,29.47 -105.3,87.72 -129.42,99.77 -306.87,61.13 -481.91,215.9 -706.84,113.8 -78.95,-55.32 -152.85,-117.37 -220.83,-185.34 -298.34,-298.35 -482.88,-710.53 -482.88,-1165.81 0,-455.28 184.54,-867.46 482.88,-1165.8 298.34,-298.34 710.53,-482.88 1165.8,-482.88 455.28,0 867.46,184.54 1165.81,482.88 298.34,298.34 482.87,710.52 482.87,1165.8 0,455.28 -184.53,867.46 -482.87,1165.81 -70.64,70.64 -147.68,134.89 -230.15,191.83 -105.43,14.18 -214.65,18.77 -254.64,-20.06z"/>
   <path class="fil2" d="M2518.5 1140.14l15.76 -414.95 133.8 49.03c-4.32,18.44 -96.39,239.86 -111.32,275.75 -10.31,24.76 -26.3,72.02 -38.24,90.17zm-129.86 -382.17c12.03,-8.24 90.69,-35.65 110.27,-39.8l-13.28 353.61c-9.42,-12.32 -96.64,-302.98 -96.99,-313.81zm181.05 356.64c4.72,-21.41 22.61,-58.85 31.72,-81.18 11.29,-27.69 21.9,-54.14 33.53,-82.3l50.4 -123.79c16.68,-41.25 7.93,-29.48 21.79,-24.27l2.06 -27.32 128.06 -56.46c-3.53,11.1 -247.02,372.99 -267.56,395.32zm-376.94 -411.14l154.78 55.59 0.86 36.68 10.78 -8.96 114.95 376.71c-13.48,-16.56 -25.07,-36.91 -36.51,-56.21l-228.19 -375.2c-5.45,-9.08 -12.15,-22.42 -16.67,-28.61zm519.14 33.02l6.26 -117.67c15.15,2.91 119.57,51.18 126.26,57.93l-132.52 59.74zm-296.6 -28.04l84.46 -116.72c12.95,6.84 109.76,111.04 123.84,127.42 -28.07,-6.52 -73.4,-26.91 -102.25,-37.8 -28.76,-10.86 -74.94,21.06 -106.05,27.1zm-214.01 -42.91l144.92 -62.06 0.95 116.33c-20.77,-5.08 -137.58,-45.92 -145.87,-54.27zm329.03 -266.12c9.22,3.73 22.84,16.8 31.44,23.92 13.68,11.31 21.35,16.16 30.65,30.26 16.05,24.34 91.47,131.28 91.43,153.35 -0.04,18.15 -2.45,39.92 -3.51,58.27 -0.64,11.15 0.4,46.47 -7.1,55.24l-118.15 -125.12c-46.71,-42.45 -38.56,-39.46 -34.89,-80.99 3.38,-38.16 7.09,-76.99 10.13,-114.93zm-270.85 201.52c11.75,-12.86 26.77,-23.07 39.87,-34.66l120.76 -99.78c-16.59,27.39 -40.48,59.61 -60.65,87.32 -9.76,13.4 -29.66,18.54 -48.67,26.59 -14.1,5.97 -36.81,17.82 -51.31,20.53zm123.82 87.69c-1.97,-28.14 -1.26,-61.75 -1.13,-90.32 0.1,-25.43 18.71,-42.78 31.17,-60.17 12.18,-16.99 67.15,-99.52 78.69,-106.49 -1.34,28.5 -4.91,57.05 -7.22,85.62 -3.62,44.66 -2.24,36.34 -23.37,66.07 -12.5,17.59 -68,96.85 -78.14,105.29zm-37.31 340.15c9.87,6.88 68.32,108.17 79.15,125.71 13.67,22.14 25.54,42.07 38.53,63.09l29.46 49.07c5.46,9.23 4.1,10.87 12.44,7.89 10.27,-2.44 1.43,2.51 6.65,-5.92 0.47,-0.76 2.61,-6.99 3.12,-8.2 2.29,-5.5 6.12,-10.65 9.73,-15.96 7.45,-10.97 13.55,-20.4 21.05,-31.18 14.34,-20.6 26.85,-39.44 41.11,-60.38 13.19,-19.41 73.11,-111.54 83.73,-119.95l121.42 -179.7c11.29,-15.19 19.32,-29.13 30.68,-44.75 11.7,-16.06 89.21,-128.5 91.63,-137.55 -24.54,-16.43 -74.85,-63.37 -101.55,-84.13 -17.26,-13.41 -32.65,-28.25 -50.57,-42.27 -10.08,-7.89 -15.58,-13.31 -25.28,-21.14l-125.12 -106.97 -55.56 -83.69c-3.83,-5.86 -5.05,-8.57 -8.94,-14.27 -7.67,-11.23 -6.92,-2.7 -7.28,-18.83 -6.08,4.07 -6.62,6.23 -11.2,12 -7.9,9.94 -12.03,9.24 -16.76,18.05 -5.81,10.82 1.34,7.02 -14.77,22.95l-53.4 45.24c-18.3,14.58 -34.1,28.83 -52.27,43.47l-263.61 223.78c2.54,10.92 19.88,36.43 25.95,46.58l137.47 225.16c9.66,16.22 17.5,29.17 27.16,45.36 8.98,15.06 20.42,31.4 27.03,46.54z"/>
   <path class="fil0" d="M2193.7 1122.78c-6.3,23.66 -11.56,37.87 -3.73,65.09 7.48,26 19.2,32.7 28.31,50.94 76.21,70.22 176.99,95.79 283.12,95.72 91.23,-0.05 188.8,-17.4 262.33,-68.43 10.38,-7.2 18.97,-15.66 27.98,-21.49 7.04,-15.42 20.67,-24.16 30.02,-48.03 9.86,-25.18 7.36,-41.72 1.42,-68 -4.29,-23.86 -39.68,-58.76 -58.85,-71.38 -15.27,-10.05 -23.39,-14.91 -40.41,-23.41 -10.4,-5.2 -36.78,-16.97 -48.4,-18.93 -10.62,8.41 -70.54,100.54 -83.73,119.95 -14.26,20.95 -26.77,39.78 -41.11,60.38 -7.5,10.78 -13.59,20.21 -21.05,31.18 -3.6,5.31 -7.44,10.45 -9.73,15.96 -0.51,1.21 -2.65,7.44 -3.12,8.2 -5.22,8.43 3.63,3.48 -6.64,5.92 -8.35,2.98 -6.99,1.34 -12.44,-7.89l-29.46 -49.07c-13,-21.02 -24.87,-40.95 -38.54,-63.09 -10.83,-17.54 -69.28,-118.83 -79.14,-125.71 -28.78,7.89 -67.75,24.63 -91.73,40.69 -21.61,14.48 -58.34,45.07 -65.1,71.4z"/>
  </g>
 </g>
</svg>
