<?xml version="1.0" encoding="UTF-8"?>
<!DOCTYPE svg PUBLIC "-//W3C//DTD SVG 1.1//EN" "http://www.w3.org/Graphics/SVG/1.1/DTD/svg11.dtd">
<!-- Creator: CorelDRAW 2019 (64-Bit Evaluation Version) -->
<svg xmlns="http://www.w3.org/2000/svg" xml:space="preserve" width="380mm" height="50mm" version="1.1" style="shape-rendering:geometricPrecision; text-rendering:geometricPrecision; image-rendering:optimizeQuality; fill-rule:evenodd; clip-rule:evenodd"
viewBox="0 0 38000 5000"
 xmlns:xlink="http://www.w3.org/1999/xlink"
 xmlns:xodm="http://www.corel.com/coreldraw/odm/2003">
 <defs>
  <style type="text/css">
   <![CDATA[
    .fil0 {fill:#006633;fill-rule:nonzero}
   ]]>
  </style>
 </defs>
 <g id="Layer_x0020_1">
  <metadata id="CorelCorpID_0Corel-Layer"/>
  <path class="fil0" d="M4217.29 151.33l0 548.33 -1359.72 0 0 4153.76 -1165.46 0 0 -4153.76 -1359.72 0 0 -548.33 3884.9 0zm1890.68 0l1437.4 0c802.88,0 1204.34,220.34 1204.34,661l0 3380.09c0,440.67 -401.46,661 -1204.34,661l-1437.4 0c-811.52,0 -1217.29,-220.33 -1217.29,-661l0 -3380.09c0,-440.66 405.77,-661 1217.29,-661zm1476.26 3935.94l0 -3169.78c0,-90.14 -25.91,-148.98 -77.7,-176.52 -51.81,-27.54 -155.4,-41.31 -310.79,-41.31l-751.09 0c-155.4,0 -256.83,13.77 -304.32,41.31 -47.48,27.54 -71.22,86.38 -71.22,176.52l0 3169.78c0,90.13 23.74,148.97 71.22,176.51 47.49,27.54 148.92,41.31 304.32,41.31l751.09 0c155.39,0 258.98,-13.77 310.79,-41.31 51.79,-27.54 77.7,-86.38 77.7,-176.51zm5348.23 -3935.94l1074.82 0 0 4702.09 -1178.42 0 -1709.36 -3395.12 0 3395.12 -1074.82 0 0 -4702.09 1230.21 0 1657.57 3297.47 0 -3297.47zm2525.2 0l1165.47 0 0 4702.09 -1165.47 0 0 -4702.09zm6345.36 1374.58l-1178.42 0 0 -623.44c0,-90.14 -25.9,-148.98 -77.7,-176.52 -51.79,-27.54 -155.41,-41.31 -310.79,-41.31l-660.44 0c-155.39,0 -258.99,13.77 -310.79,41.31 -51.81,27.54 -77.71,86.38 -77.71,176.52l0 3207.33c0,90.14 25.9,148.97 77.71,176.52 51.8,27.54 155.4,41.31 310.79,41.31l660.44 0c155.38,0 259,-13.77 310.79,-41.31 51.8,-27.55 77.7,-86.38 77.7,-176.52l0 -1149.23 -647.49 0 0 -525.8 1825.91 0 0 1757.65c0,445.68 -401.44,668.51 -1204.32,668.51l-1385.63 0c-802.88,0 -1204.32,-222.83 -1204.32,-668.51l0 -3380.09c0,-440.66 401.44,-661 1204.32,-661l1385.63 0c802.88,0 1204.32,220.34 1204.32,661l0 713.58zm2395.69 2779.18l2343.9 0 0 548.33 -3522.32 0 0 -4702.09 3431.67 0 0 548.33 -2253.25 0 0 1449.68 1864.76 0 0 548.33 -1864.76 0 0 1607.42zm4286.35 548.33l-1023.02 0 0 -4702.09 1282.02 0 1385.61 2914.4 1385.62 -2914.4 1282.02 0 0 4702.09 -1023.02 0 0 -3440.18 -1113.68 2418.64 -1061.87 0 -1113.68 -2411.13 0 3432.67zm7989.98 -766.15l0 -1149.24c0,-90.13 -23.74,-148.97 -71.24,-176.51 -47.48,-27.54 -148.92,-41.31 -304.3,-41.31l-958.29 0c-785.62,0 -1178.42,-222.84 -1178.42,-668.51l0 -1239.37c0,-440.66 401.44,-661 1204.32,-661l1269.07 0c802.88,0 1204.34,220.34 1204.34,661l0 691.04 -1178.44 0 0 -585.88c0,-90.14 -25.9,-148.98 -77.69,-176.52 -51.81,-27.54 -155.4,-41.31 -310.79,-41.31l-543.89 0c-155.41,0 -259.01,13.77 -310.8,41.31 -51.8,27.54 -77.7,86.38 -77.7,176.52l0 1044.07c0,90.14 25.9,148.98 77.7,176.52 51.79,27.54 155.39,41.31 310.8,41.31l945.33 0c794.24,0 1191.37,220.33 1191.37,661l0 1352.03c0,440.67 -405.76,661 -1217.28,661l-1256.11 0c-802.9,0 -1204.34,-220.33 -1204.34,-661l0 -691.04 1178.43 0 0 585.89c0,90.13 25.91,148.97 77.7,176.51 51.81,27.54 155.4,41.31 310.79,41.31l543.9 0c155.38,0 256.82,-13.77 304.3,-41.31 47.5,-27.54 71.24,-86.38 71.24,-176.51z"/>
 </g>
</svg>
